# xmcd CD database file
#
# Track frame offsets:
#	150
#	15232
#	34468
#	50837
#	68518
#	82565
#	100008
#	116599
#	134326
#	151326
#	172856
#	189600
#	207352
#	223309
#	241435
#	258911
#	276102
#	303668
#
# Disc length: 4257 seconds
#
# Revision: 1
# Processed by: cddbd v1.5.2PL0 Copyright (c) Steve Scherf et al.
# Submitted via: CDex 1.51
#
DISCID=f6109f12
DTITLE=Various Artist - SF-337
DYEAR=1900
DGENRE=Blues
TTITLE0=Saturdays The - Not Giving Up
TTITLE1=Kylie Minogue - Into The Blue
TTITLE2=Robbie Williams - Shine My Shoes
TTITLE3=Idina Menzel - Let It Go
TTITLE4=One Direction - Midnight Memories
TTITLE5=Zedd Ft Hayley Williams - Stay The Night
TTITLE6=Vance Joy - Riptide
TTITLE7=Bastille - flaws
TTITLE8=Tinie Tempah Ft Labrinth - Lover Not A Fighter
TTITLE9=Sophie Ellis Bextor - young Blood
TTITLE10=Britney Spears Ft Will.i.am - It Should Be Easy
TTITLE11=Enrique Iglesias Ft Pitbull - Freak
TTITLE12=Gorgon City Ft Mnek - Ready For Your Love
TTITLE13=Ellie Goulding - Goodness Gracious
TTITLE14=Wilkingson Ft Detour City - Too Close
TTITLE15=Elyar Fox - Do It All Over Again
TTITLE16=Macklemore and Ryan Lewis Ft Schoolboy Q And hollis - White Walls
TTITLE17=Boyzone - Light Up The Night
EXTD=
EXTT0=
EXTT1=
EXTT2=
EXTT3=
EXTT4=
EXTT5=
EXTT6=
EXTT7=
EXTT8=
EXTT9=
EXTT10=
EXTT11=
EXTT12=
EXTT13=
EXTT14=
EXTT15=
EXTT16=
EXTT17=
PLAYORDER=
